<?xml version="1.0" standalone="no"?>
<!DOCTYPE svg PUBLIC "-//W3C//DTD SVG 20010904//EN"
 "http://www.w3.org/TR/2001/REC-SVG-20010904/DTD/svg10.dtd">
<svg version="1.0" xmlns="http://www.w3.org/2000/svg"
 width="256.000000pt" height="256.000000pt" viewBox="0 0 256.000000 256.000000"
 preserveAspectRatio="xMidYMid meet">
<metadata>
Created by potrace 1.11, written by Peter Selinger 2001-2013
</metadata>
<g transform="translate(0.000000,256.000000) scale(0.100000,-0.100000)"
fill="#000000" stroke="none">
<path d="M1143 2226 l-132 -133 135 -134 134 -134 134 134 135 135 -133 133
c-74 73 -135 133 -137 133 -2 -1 -63 -61 -136 -134z"/>
<path d="M586 1970 c-1 -3 -2 -72 -1 -155 l1 -150 133 -130 c72 -71 133 -131
134 -132 2 -1 72 66 155 150 l153 153 -135 135 -136 134 -151 0 c-83 0 -152
-2 -153 -5z"/>
<path d="M1537 1842 c-72 -73 -133 -134 -134 -135 -1 -2 66 -71 150 -155 l152
-152 135 134 136 134 -1 154 0 153 -153 0 -152 0 -133 -133z"/>
<path d="M1130 1436 c-80 -80 -145 -150 -145 -155 0 -12 284 -301 295 -301 11
0 295 289 295 300 0 11 -285 300 -295 300 -3 0 -71 -65 -150 -144z"/>
<path d="M331 1414 l-133 -134 129 -130 c71 -71 134 -130 139 -130 5 0 68 59
139 130 l130 130 -135 134 -135 135 -134 -135z"/>
<path d="M1960 1415 l-135 -135 135 -135 134 -134 134 134 134 135 -134 135
-134 134 -134 -134z"/>
<path d="M720 1026 l-136 -135 2 -143 c1 -79 2 -148 3 -153 1 -7 56 -10 150
-10 l150 0 98 96 c54 53 115 114 135 136 l38 39 -153 152 -152 152 -135 -134z"/>
<path d="M1552 1007 l-152 -152 135 -135 135 -135 152 0 153 0 0 153 0 153
-133 132 c-73 72 -134 133 -135 134 -2 1 -71 -66 -155 -150z"/>
<path d="M1143 598 l-132 -133 135 -134 134 -133 134 134 135 134 -132 132
c-73 73 -135 132 -137 132 -3 0 -65 -60 -137 -132z"/>
</g>
</svg>
